<?xml version="1.0" encoding="UTF-8" standalone="no"?>
<svg width="270px" height="465px" viewBox="0 0 270 465" version="1.1" xmlns="http://www.w3.org/2000/svg" xmlns:xlink="http://www.w3.org/1999/xlink">
    <defs></defs>
    <g stroke="none" stroke-width="1" fill="none" fill-rule="evenodd">
        <g>
            <g transform="translate(1.000000, 435.000000)">
                <rect stroke="#FF2D55" stroke-width="2" x="0" y="0" width="112" height="29" rx="3"></rect>
                <text font-family="Arial" font-size="18" font-weight="normal" fill="#FF2D55">
                    <tspan x="6" y="21">RESPONSE</tspan>
                </text>
            </g>
            <g transform="translate(12.000000, 386.000000)">
                <text font-family="Arial" font-size="16" font-weight="normal" fill="#BECAD3">
                    <tspan x="17" y="25">Response sending</tspan>
                </text>
                <g fill="#FF2D55">
                    <circle cx="3" cy="3" r="3"></circle>
                    <circle cx="3" cy="35" r="3"></circle>
                    <circle cx="3" cy="19" r="3"></circle>
                </g>
            </g>
            <g transform="translate(15.000000, 234.000000) rotate(-90.000000) translate(-15.000000, -234.000000) translate(-127.000000, 219.000000)">
                <rect fill="#FF2D55" x="0" y="1.77635684e-15" width="284" height="30" rx="3"></rect>
                <text font-family="Arial" font-size="22" font-weight="normal" fill="#FFFFFF">
                    <tspan x="43.1826172" y="23">HANDLERS STACK</tspan>
                </text>
            </g>
            <g transform="translate(46.000000, 346.000000)">
                <rect stroke="#DBE2E8" stroke-width="2" x="0" y="0" width="94" height="29" rx="3"></rect>
                <text font-family="Arial" font-size="18" font-weight="normal">
                    <tspan x="6" y="21" fill="#BECAD3">LOG </tspan>
                    <tspan x="49.0136719" y="21" fill="#5E676E">END</tspan>
                </text>
            </g>
            <g transform="translate(76.000000, 305.000000)">
                <rect stroke="#DBE2E8" stroke-width="2" x="0" y="0" width="159" height="29" rx="3"></rect>
                <text font-family="Arial" font-size="18" font-weight="normal">
                    <tspan x="6" y="21" fill="#BECAD3">COMPRESS </tspan>
                    <tspan x="114.017578" y="21" fill="#5E676E">END</tspan>
                </text>
            </g>
            <g transform="translate(106.000000, 264.000000)">
                <rect stroke="#DBE2E8" stroke-width="2" x="0" y="0" width="107" height="29" rx="3"></rect>
                <text font-family="Arial" font-size="18" font-weight="normal">
                    <tspan x="6" y="21" fill="#BECAD3">CORS </tspan>
                    <tspan x="63.0058594" y="21" fill="#5E676E">END</tspan>
                </text>
            </g>
            <g transform="translate(117.000000, 215.000000)">
                <text font-family="Arial" font-size="16" font-weight="normal" fill="#BECAD3">
                    <tspan x="17" y="25">Response writing</tspan>
                </text>
                <g fill="#FF2D55">
                    <circle cx="3" cy="3" r="3"></circle>
                    <circle cx="3" cy="35" r="3"></circle>
                    <circle cx="3" cy="19" r="3"></circle>
                </g>
            </g>
            <g transform="translate(106.000000, 175.000000)">
                <rect stroke="#DBE2E8" stroke-width="2" x="0" y="0" width="132" height="29" rx="3"></rect>
                <text font-family="Arial" font-size="18" font-weight="normal">
                    <tspan x="6" y="21" fill="#BECAD3">CORS </tspan>
                    <tspan x="63.0058594" y="21" fill="#4CD964">START</tspan>
                </text>
            </g>
            <g transform="translate(76.000000, 134.000000)">
                <rect stroke="#DBE2E8" stroke-width="2" x="0" y="0" width="178" height="29" rx="3"></rect>
                <text font-family="Arial" font-size="18" font-weight="normal">
                    <tspan x="6" y="21" fill="#BECAD3">COMPRESS </tspan>
                    <tspan x="114.017578" y="21" fill="#4CD964">START</tspan>
                </text>
            </g>
            <g transform="translate(46.000000, 93.000000)">
                <rect stroke="#DBE2E8" stroke-width="2" x="0" y="0" width="113" height="29" rx="3"></rect>
                <text font-family="Arial" font-size="18" font-weight="normal">
                    <tspan x="6" y="21" fill="#BECAD3">LOG </tspan>
                    <tspan x="49.0136719" y="21" fill="#4CD964">START</tspan>
                </text>
            </g>
            <g transform="translate(12.000000, 41.000000)">
                <text font-family="Arial" font-size="16" font-weight="normal" fill="#BECAD3">
                    <tspan x="17" y="25">Context creation</tspan>
                </text>
                <g fill="#FF2D55">
                    <circle cx="3" cy="3" r="3"></circle>
                    <circle cx="3" cy="35" r="3"></circle>
                    <circle cx="3" cy="19" r="3"></circle>
                </g>
            </g>
            <g transform="translate(1.000000, 1.000000)">
                <rect stroke="#FF2D55" stroke-width="2" x="0" y="0" width="100" height="29" rx="3"></rect>
                <text font-family="Arial" font-size="18" font-weight="normal" fill="#FF2D55">
                    <tspan x="6" y="21">REQUEST</tspan>
                </text>
            </g>
        </g>
    </g>
</svg>