<?xml version="1.0" encoding="UTF-8" standalone="no"?>
<svg width="270px" height="465px" viewBox="0 0 270 465" version="1.1" xmlns="http://www.w3.org/2000/svg" xmlns:xlink="http://www.w3.org/1999/xlink">
    <defs></defs>
    <g stroke="none" stroke-width="1" fill="none" fill-rule="evenodd">
        <g>
            <g transform="translate(1.000000, 435.000000)">
                <rect stroke="#FF2D55" stroke-width="2" x="0" y="0" width="115" height="29" rx="3"></rect>
                <text font-family="Gotham" font-size="18" font-weight="313" fill="#FF2D55">
                    <tspan x="6" y="21">RESPONSE</tspan>
                </text>
            </g>
            <g transform="translate(12.000000, 386.000000)">
                <text font-family="Gotham" font-size="16" font-weight="260" fill="#BECAD3">
                    <tspan x="17" y="24">Response sending</tspan>
                </text>
                <g fill="#FF2D55">
                    <circle cx="3" cy="3" r="3"></circle>
                    <circle cx="3" cy="35" r="3"></circle>
                    <circle cx="3" cy="19" r="3"></circle>
                </g>
            </g>
            <g transform="translate(15.500000, 234.000000) rotate(-90.000000) translate(-15.500000, -234.000000) translate(-126.500000, 218.500000)">
                <rect fill="#FF2D55" x="0" y="1.77635684e-15" width="284" height="30" rx="3"></rect>
                <text font-family="Gotham" font-size="22" font-weight="260" fill="#FFFFFF">
                    <tspan x="37.94" y="23">HANDLERS STACK</tspan>
                </text>
            </g>
            <g transform="translate(46.000000, 346.000000)">
                <rect stroke="#DBE2E8" stroke-width="2" x="0" y="0" width="98" height="29" rx="3"></rect>
                <text font-family="Gotham" font-size="18" font-weight="313">
                    <tspan x="6" y="21" fill="#BECAD3">LOG </tspan>
                    <tspan x="51.234" y="21" fill="#FFCC00">END</tspan>
                </text>
            </g>
            <g transform="translate(76.000000, 305.000000)">
                <rect stroke="#DBE2E8" stroke-width="2" x="0" y="0" width="162" height="29" rx="3"></rect>
                <text font-family="Gotham" font-size="18" font-weight="313">
                    <tspan x="6" y="21" fill="#BECAD3">COMPRESS </tspan>
                    <tspan x="115.206" y="21" fill="#FFCC00">END</tspan>
                </text>
            </g>
            <g transform="translate(106.000000, 264.000000)">
                <rect stroke="#DBE2E8" stroke-width="2" x="0" y="0" width="111" height="29" rx="3"></rect>
                <text font-family="Gotham" font-size="18" font-weight="313">
                    <tspan x="6" y="21" fill="#BECAD3">CORS </tspan>
                    <tspan x="64.158" y="21" fill="#FFCC00">END</tspan>
                </text>
            </g>
            <g transform="translate(117.000000, 215.000000)">
                <text font-family="Gotham" font-size="16" font-weight="260" fill="#BECAD3">
                    <tspan x="17" y="24">Response writing</tspan>
                </text>
                <g fill="#FF2D55">
                    <circle cx="3" cy="3" r="3"></circle>
                    <circle cx="3" cy="35" r="3"></circle>
                    <circle cx="3" cy="19" r="3"></circle>
                </g>
            </g>
            <g transform="translate(106.000000, 175.000000)">
                <rect stroke="#DBE2E8" stroke-width="2" x="0" y="0" width="132" height="29" rx="3"></rect>
                <text font-family="Gotham" font-size="18" font-weight="313">
                    <tspan x="6" y="21" fill="#BECAD3">CORS </tspan>
                    <tspan x="64.158" y="21" fill="#4CD964">START</tspan>
                </text>
            </g>
            <g transform="translate(76.000000, 134.000000)">
                <rect stroke="#DBE2E8" stroke-width="2" x="0" y="0" width="182" height="29" rx="3"></rect>
                <text font-family="Gotham" font-size="18" font-weight="313">
                    <tspan x="6" y="21" fill="#BECAD3">COMPRESS </tspan>
                    <tspan x="115.206" y="21" fill="#4CD964">START</tspan>
                </text>
            </g>
            <g transform="translate(46.000000, 93.000000)">
                <rect stroke="#DBE2E8" stroke-width="2" x="0" y="0" width="119" height="29" rx="3"></rect>
                <text font-family="Gotham" font-size="18" font-weight="313">
                    <tspan x="6" y="21" fill="#BECAD3">LOG </tspan>
                    <tspan x="51.234" y="21" fill="#4CD964">START</tspan>
                </text>
            </g>
            <g transform="translate(12.000000, 41.000000)">
                <text font-family="Gotham" font-size="16" font-weight="260" fill="#BECAD3">
                    <tspan x="17" y="24">Context creation</tspan>
                </text>
                <g fill="#FF2D55">
                    <circle cx="3" cy="3" r="3"></circle>
                    <circle cx="3" cy="35" r="3"></circle>
                    <circle cx="3" cy="19" r="3"></circle>
                </g>
            </g>
            <g transform="translate(1.000000, 1.000000)">
                <rect stroke="#FF2D55" stroke-width="2" x="0" y="0" width="102" height="29" rx="3"></rect>
                <text font-family="Gotham" font-size="18" font-weight="313" fill="#FF2D55">
                    <tspan x="6" y="21">REQUEST</tspan>
                </text>
            </g>
        </g>
    </g>
</svg>