<?xml version="1.0" encoding="UTF-8" standalone="no"?>
<svg width="80px" height="80px" viewBox="0 0 80 80" version="1.1" xmlns="http://www.w3.org/2000/svg" xmlns:xlink="http://www.w3.org/1999/xlink">
    <defs></defs>
    <g stroke="none" stroke-width="1" fill="none" fill-rule="evenodd">
        <g fill="#FFFFFF">
            <path d="M67.2766582,18 C73.3148273,24.5844976 77,33.3618897 77,43 C77,63.4345357 60.4345357,80 40,80 C19.5654643,80 3,63.4345357 3,43 C3,33.3618897 6.6851727,24.5844976 12.7233418,18 L12.7233418,18 L10,18 L8,20 L5,17 L13,9 L16,12 L14,14 L14,16.6751006 C20.2399858,10.5116504 28.6603645,6.55061595 38,6.05313325 L38,0 L42,0 L42,6.05313325 L42,6.05313325 C51.3396355,6.55061595 59.7600142,10.5116504 66,16.6751006 L66,14 L64,12 L67,9 L75,17 L72,20 L70,18 L67.2766582,18 Z M41,39.1260175 C42.7252272,39.5700603 44,41.1361606 44,43 C44,44.606858 43.0525184,45.9924199 41.6857595,46.6284811 L41.6857595,46.6284811 L40,50 L38.3142405,46.6284811 C36.9474816,45.9924199 36,44.606858 36,43 C36,41.1361606 37.2747728,39.5700603 39,39.1260175 L39,12 L41,12 L41,39.1260175 L41,39.1260175 Z M40,78 C59.3299662,78 75,62.3299662 75,43 C75,23.6700338 59.3299662,8 40,8 C20.6700338,8 5,23.6700338 5,43 C5,62.3299662 20.6700338,78 40,78 Z"></path>
        </g>
    </g>
</svg>