<?xml version="1.0" encoding="UTF-8" standalone="no"?>
<svg width="80px" height="80px" viewBox="0 0 80 80" version="1.1" xmlns="http://www.w3.org/2000/svg" xmlns:xlink="http://www.w3.org/1999/xlink">
    <defs></defs>
    <g stroke="none" stroke-width="1" fill="none" fill-rule="evenodd">
        <g fill="#FFFFFF">
            <g>
                <path d="M2,3 C2,3 2,2 3,2 L53,2 C53,2 54,2 54,3 L54,21 L56,21 L56,3 C56,-8.52651283e-14 53,0 53,0 C53,0 6,-8.32667268e-16 3,-4.26325641e-14 C2.84217094e-14,-8.4432461e-14 2.84217094e-14,3 2.84217094e-14,3 C2.84217094e-14,3 5.75095527e-14,37 2.84217094e-14,40 C-4.4408921e-16,43 3,43 3,43 L21,43 L21,41 L3,41 C2,41 2,40 2,40 L2,3 Z M25,65 C25,68 28,68 28,68 L55,68 L71,80 L71,68 L77,68 C77,68 80,68 80,65 C80,62 80,28 80,28 C80,28 80,25 77,25 L28,25 C25,25 25,28 25,28 C25,28 25,62 25,65 Z M69,66 L69,76 L56,66 L28,66 C27,66 27,65 27,65 L27,28 C27,28 27,27 28,27 L77,27 C78,27 78,28 78,28 L78,65 C78,66 77,66 77,66 L69,66 Z"></path>
            </g>
        </g>
    </g>
</svg>