<?xml version="1.0" encoding="UTF-8" standalone="no"?>
<svg width="80px" height="80px" viewBox="0 0 80 80" version="1.1" xmlns="http://www.w3.org/2000/svg" xmlns:xlink="http://www.w3.org/1999/xlink">
    <defs></defs>
    <g stroke="none" stroke-width="1" fill="none" fill-rule="evenodd">
        <g>
            <g>
                <g>
                    <path d="M64,0 L80,16 L64,32 L62.5,30.5 L77,16 L62.5,1.5 L64,0 Z" fill="#FFFFFF"></path>
                    <path d="M77,16 C77,16 71,16 62,16 C53,16 47,16 36,40 C29.5469836,54.0793086 19,64 10,64 C1,64 5.68434189e-14,64 5.68434189e-14,64" stroke="#FFFFFF" stroke-width="2"></path>
                </g>
                <g transform="translate(40.000000, 47.500000) scale(1, -1) translate(-40.000000, -47.500000) translate(0.000000, 15.000000)">
                    <path d="M64,0 L80,16 L64,32 L62.5,30.5 L77,16 L62.5,1.5 L64,0 Z" fill="#FFFFFF"></path>
                    <path d="M77,16 C77,16 71,16 62,16 C53,16 47,16 36,40 C29.5469836,54.0793086 19,64 10,64 C1,64 5.68434189e-14,64 5.68434189e-14,64" stroke="#FFFFFF" stroke-width="2"></path>
                </g>
            </g>
        </g>
    </g>
</svg>