<?xml version="1.0" encoding="UTF-8" standalone="no"?>
<svg width="80px" height="80px" viewBox="0 0 80 80" version="1.1" xmlns="http://www.w3.org/2000/svg" xmlns:xlink="http://www.w3.org/1999/xlink">
    <defs></defs>
    <g stroke="none" stroke-width="1" fill="none" fill-rule="evenodd">
        <g fill="#FFFFFF">
            <path d="M10,10 L20,10 L20,0 L55,0 L70,15 L70,70 L60,70 L60,80 L10,80 L10,10 Z M12,12 L20,12 L20,70 L58,70 L58,78 L12,78 L12,12 Z M22,2 L54,2 L68,16 L68,68 L22,68 L22,2 Z M48,7 L50,7 L50,20 L63,20 L63,22 L48,22 L48,7 Z"></path>
        </g>
    </g>
</svg>