<?xml version="1.0" encoding="UTF-8" standalone="no"?>
<svg width="40px" height="40px" viewBox="0 0 40 40" version="1.1" xmlns="http://www.w3.org/2000/svg" xmlns:xlink="http://www.w3.org/1999/xlink">
    <defs></defs>
    <g stroke="none" stroke-width="1" fill="none" fill-rule="evenodd">
        <g fill="#FFFFFF">
            <path d="M26.091509,39.0554107 C34.1584282,36.4787956 40,28.9215839 40,20 C40,8.954305 31.045695,0 20,0 C8.954305,0 0,8.954305 0,20 C0,28.9215839 5.84157181,36.4787956 13.908491,39.0554107 C14.3526541,39.0488312 15,38.8138705 15,37.5 C15,36.4700521 15,35.5 15,35.5 C15,35.5 10.5,36.5 9,34 C7.5,31.5 8,31.5 7,30.5 C6,29.5 5,29.4491897 5,29 C5,28.5508103 6,28.5 7.5,29 C9,29.5 10.5,33 12.5,33 C14,33 15,32.5 15,32.5 C15,30.5 16.5,29.5 16.5,29.5 C16.5,29.5 7.5,30 7.5,20 C7.5,16 9.5,14.0000002 9.5,14.0000002 C9.5,14.0000002 8.5,12.5 9.5,8.99999998 C13,9.49999998 14.5,10.9999999 14.5,10.9999999 L20,10.5 L25.5,11 C25.5,11 27,9.49999998 30.5,9 C31.5,12.5 30.5,14.0000002 30.5,14.0000002 C30.5,14.0000002 32.5,16 32.5,20 C32.5,30 23.5,29.5 23.5,29.5 C23.5,29.5 25,30.5 25,32.5 L25,37.5 C25,38.8138705 25.6473459,39.0488312 26.091509,39.0554107 Z"></path>
        </g>
    </g>
</svg>