<?xml version="1.0" encoding="UTF-8" standalone="no"?>
<svg width="700px" height="200px" viewBox="0 0 700 200" version="1.1" xmlns="http://www.w3.org/2000/svg" xmlns:xlink="http://www.w3.org/1999/xlink">
    <defs>
        <linearGradient x1="50%" y1="0%" x2="50%" y2="100%" id="linearGradient-1">
            <stop stop-color="#5A3FB5" offset="0%"></stop>
            <stop stop-color="#3BC0FF" offset="100%"></stop>
        </linearGradient>
        <linearGradient x1="50%" y1="26.5018503%" x2="50%" y2="100%" id="linearGradient-2">
            <stop stop-color="#5A3FB5" offset="0%"></stop>
            <stop stop-color="#3BC0FF" offset="100%"></stop>
        </linearGradient>
    </defs>
    <g stroke="none" stroke-width="1" fill="none" fill-rule="evenodd">
        <g>
            <g>
                <path d="M602,35 L602,38 L700,38 L700,35 L602,35 Z M602,130 L602,133 L700,133 L700,130 L602,130 Z M602,82 L602,85 L700,85 L700,82 L602,82 Z" fill="url(#linearGradient-1)"></path>
                <path d="M511,35 L514,35 L514,130 L587,130 L587,133 L511,133 L511,35 Z" fill="url(#linearGradient-1)"></path>
                <rect fill="url(#linearGradient-1)" x="489" y="35" width="3" height="98"></rect>
                <path d="M373,35 L470,35 L470,38 L423,38 L423,133 L420,133 L420,38 L373,38 L373,35 Z" fill="url(#linearGradient-1)"></path>
                <path d="M301,133 L304.5,133 L350,42 L395.5,133 L399,133 L350,35 L301,133 Z" fill="url(#linearGradient-1)"></path>
                <path d="M211,35 L214,35 L214,130 L287,130 L287,133 L211,133 L211,35 Z" fill="url(#linearGradient-1)"></path>
                <path d="M145.6,133 C172.661953,133 194.6,111.061953 194.6,84 C194.6,72.5283227 190.657846,61.9773847 184.054329,53.6279765 C190.657843,79.8 173.6,88.2 173.6,88.2 C173.6,88.2 194.6,26.6 124.6,0 C152.6,35 128.8,58.8 128.8,58.8 C128.8,58.8 133,35 119,26.6 C119,54.6 96.6,57.4 96.6,84 C96.6,111.061953 118.538047,133 145.6,133 Z" stroke="url(#linearGradient-2)" stroke-width="3"></path>
                <path d="M0,35 L3.5,35 L49,126 L94.5,35 L98,35 L49,133 L0,35 Z" fill="url(#linearGradient-1)"></path>
            </g>
            <path d="M1.635,181.371 L3.65,181.371 C3.87533446,181.371 4.05733264,181.427333 4.196,181.54 C4.33466736,181.652667 4.43866632,181.795666 4.508,181.969 L9.773,195.112 C9.89433394,195.406668 10.0048328,195.727332 10.1045,196.074 C10.2041672,196.420668 10.3016662,196.780331 10.397,197.153 C10.4750004,196.780331 10.5594995,196.420668 10.6505,196.074 C10.7415005,195.727332 10.8476661,195.406668 10.969,195.112 L16.208,181.969 C16.268667,181.821666 16.3726659,181.685167 16.52,181.5595 C16.6673341,181.433833 16.8493323,181.371 17.066,181.371 L19.094,181.371 L11.502,200 L9.227,200 L1.635,181.371 Z M35.952,181.371 L35.952,183.425 L27.008,183.425 L27.008,189.613 L34.249,189.613 L34.249,191.589 L27.008,191.589 L27.008,197.946 L35.952,197.946 L35.952,200 L24.473,200 L24.473,181.371 L35.952,181.371 Z M45.348,192.226 L45.348,200 L42.839,200 L42.839,181.371 L48.104,181.371 C49.2826726,181.371 50.3009957,181.490165 51.159,181.7285 C52.0170043,181.966835 52.7254972,182.311331 53.2845,182.762 C53.8435028,183.212669 54.257332,183.756497 54.526,184.3935 C54.794668,185.030503 54.929,185.743329 54.929,186.532 C54.929,187.19067 54.825001,187.805997 54.617,188.378 C54.408999,188.950003 54.1078353,189.463498 53.7135,189.9185 C53.3191647,190.373502 52.8381695,190.761332 52.2705,191.082 C51.7028305,191.402668 51.0593369,191.645333 50.34,191.81 C50.6520016,191.992001 50.9293321,192.256332 51.172,192.603 L56.606,200 L54.37,200 C53.9106644,200 53.5726678,199.822335 53.356,199.467 L48.52,192.811 C48.3726659,192.602999 48.2123342,192.4535 48.039,192.3625 C47.8656658,192.2715 47.6056684,192.226 47.259,192.226 L45.348,192.226 Z M45.348,190.393 L47.987,190.393 C48.7236704,190.393 49.3714972,190.304168 49.9305,190.1265 C50.4895028,189.948832 50.9574981,189.697502 51.3345,189.3725 C51.7115019,189.047498 51.9953324,188.659669 52.186,188.209 C52.3766676,187.758331 52.472,187.260003 52.472,186.714 C52.472,185.604661 52.105837,184.768336 51.3735,184.205 C50.641163,183.641664 49.5513406,183.36 48.104,183.36 L45.348,183.36 L45.348,190.393 Z M71.865,184.283 C71.7869996,184.413001 71.7046671,184.5105 71.618,184.5755 C71.5313329,184.6405 71.4186674,184.673 71.28,184.673 C71.1326659,184.673 70.961501,184.599334 70.7665,184.452 C70.571499,184.304666 70.3245015,184.142168 70.0255,183.9645 C69.7264985,183.786832 69.3668354,183.624334 68.9465,183.477 C68.5261646,183.329666 68.017003,183.256 67.419,183.256 C66.8556639,183.256 66.3573355,183.331833 65.924,183.4835 C65.4906645,183.635167 65.1288348,183.840999 64.8385,184.101 C64.5481652,184.361001 64.3293341,184.666498 64.182,185.0175 C64.0346659,185.368502 63.961,185.747665 63.961,186.155 C63.961,186.675003 64.0888321,187.106165 64.3445,187.4485 C64.6001679,187.790835 64.9381646,188.083332 65.3585,188.326 C65.7788354,188.568668 66.2554973,188.778832 66.7885,188.9565 C67.3215027,189.134168 67.8674972,189.318332 68.4265,189.509 C68.9855028,189.699668 69.5314973,189.914165 70.0645,190.1525 C70.5975027,190.390835 71.0741646,190.691998 71.4945,191.056 C71.9148354,191.420002 72.2528321,191.866331 72.5085,192.395 C72.7641679,192.923669 72.892,193.573663 72.892,194.345 C72.892,195.159671 72.7533347,195.924496 72.476,196.6395 C72.1986653,197.354504 71.7935027,197.976331 71.2605,198.505 C70.7274973,199.033669 70.0731705,199.449665 69.2975,199.753 C68.5218295,200.056335 67.6400049,200.208 66.652,200.208 C65.4473273,200.208 64.3488383,199.989169 63.3565,199.5515 C62.3641617,199.113831 61.5170035,198.522337 60.815,197.777 L61.543,196.581 C61.6123337,196.485666 61.6968328,196.4055 61.7965,196.3405 C61.8961672,196.2755 62.0066661,196.243 62.128,196.243 C62.3100009,196.243 62.5179988,196.340499 62.752,196.5355 C62.9860012,196.730501 63.2784982,196.944999 63.6295,197.179 C63.9805018,197.413001 64.4051642,197.627499 64.9035,197.8225 C65.4018358,198.017501 66.0106631,198.115 66.73,198.115 C67.328003,198.115 67.8609977,198.032667 68.329,197.868 C68.7970023,197.703333 69.1934984,197.471501 69.5185,197.1725 C69.8435016,196.873499 70.0926658,196.516002 70.266,196.1 C70.4393342,195.683998 70.526,195.220336 70.526,194.709 C70.526,194.145664 70.3981679,193.684168 70.1425,193.3245 C69.8868321,192.964832 69.5510021,192.663668 69.135,192.421 C68.7189979,192.178332 68.2445027,191.972501 67.7115,191.8035 C67.1784973,191.634499 66.6325028,191.461168 66.0735,191.2835 C65.5144972,191.105832 64.9685027,190.900001 64.4355,190.666 C63.9024973,190.431999 63.4280021,190.128669 63.012,189.756 C62.5959979,189.383331 62.2601679,188.917503 62.0045,188.3585 C61.7488321,187.799497 61.621,187.108337 61.621,186.285 C61.621,185.62633 61.7488321,184.989336 62.0045,184.374 C62.2601679,183.758664 62.6306642,183.212669 63.116,182.736 C63.6013358,182.259331 64.2014964,181.878001 64.9165,181.592 C65.6315036,181.305999 66.452662,181.163 67.38,181.163 C68.4200052,181.163 69.3689957,181.327665 70.227,181.657 C71.0850043,181.986335 71.8346635,182.462997 72.476,183.087 L71.865,184.283 Z M94.43,200 L92.48,200 C92.2546655,200 92.0726674,199.943667 91.934,199.831 C91.7953326,199.718333 91.6913337,199.575334 91.622,199.402 L89.88,194.904 L81.521,194.904 L79.779,199.402 C79.718333,199.558001 79.6143341,199.696666 79.467,199.818 C79.3196659,199.939334 79.1376678,200 78.921,200 L76.971,200 L84.42,181.371 L86.981,181.371 L94.43,200 Z M82.223,193.084 L89.178,193.084 L86.253,185.505 C86.0623324,185.036998 85.8760009,184.452004 85.694,183.75 C85.5986662,184.105335 85.5055005,184.432499 85.4145,184.7315 C85.3234995,185.030501 85.2346671,185.292666 85.148,185.518 L82.223,193.084 Z M110.755,181.371 L110.755,183.49 L104.736,183.49 L104.736,200 L102.214,200 L102.214,183.49 L96.169,183.49 L96.169,181.371 L110.755,181.371 Z M119.397,200 L116.875,200 L116.875,181.371 L119.397,181.371 L119.397,200 Z M129.911,197.881 L137.971,197.881 L137.971,200 L127.389,200 L127.389,181.371 L129.911,181.371 L129.911,197.881 Z M155.232,181.371 L155.232,183.425 L146.288,183.425 L146.288,189.613 L153.529,189.613 L153.529,191.589 L146.288,191.589 L146.288,197.946 L155.232,197.946 L155.232,200 L143.753,200 L143.753,181.371 L155.232,181.371 Z M185.204,200 L183.254,200 C183.028666,200 182.846667,199.943667 182.708,199.831 C182.569333,199.718333 182.465334,199.575334 182.396,199.402 L180.654,194.904 L172.295,194.904 L170.553,199.402 C170.492333,199.558001 170.388334,199.696666 170.241,199.818 C170.093666,199.939334 169.911668,200 169.695,200 L167.745,200 L175.194,181.371 L177.755,181.371 L185.204,200 Z M172.997,193.084 L179.952,193.084 L177.027,185.505 C176.836332,185.036998 176.650001,184.452004 176.468,183.75 C176.372666,184.105335 176.2795,184.432499 176.1885,184.7315 C176.0975,185.030501 176.008667,185.292666 175.922,185.518 L172.997,193.084 Z M191.857,181.371 C192.082334,181.371 192.249166,181.399166 192.3575,181.4555 C192.465834,181.511834 192.589333,181.626666 192.728,181.8 L203.518,195.84 C203.492,195.614666 203.474667,195.395834 203.466,195.1835 C203.457333,194.971166 203.453,194.765334 203.453,194.566 L203.453,181.371 L205.663,181.371 L205.663,200 L204.389,200 C204.189666,200 204.022834,199.965334 203.8885,199.896 C203.754166,199.826666 203.622001,199.709667 203.492,199.545 L192.715,185.518 C192.732333,185.734668 192.745333,185.946999 192.754,186.155 C192.762667,186.363001 192.767,186.553666 192.767,186.727 L192.767,200 L190.557,200 L190.557,181.371 L191.857,181.371 Z M229.359,190.692 C229.359,192.08734 229.138002,193.356994 228.696,194.501 C228.253998,195.645006 227.630004,196.624329 226.824,197.439 C226.017996,198.253671 225.051672,198.884164 223.925,199.3305 C222.798328,199.776836 221.55034,200 220.181,200 L213.213,200 L213.213,181.371 L220.181,181.371 C221.55034,181.371 222.798328,181.594164 223.925,182.0405 C225.051672,182.486836 226.017996,183.119496 226.824,183.9385 C227.630004,184.757504 228.253998,185.738994 228.696,186.883 C229.138002,188.027006 229.359,189.29666 229.359,190.692 L229.359,190.692 Z M226.772,190.692 C226.772,189.547994 226.616002,188.525338 226.304,187.624 C225.991998,186.722662 225.550003,185.960003 224.978,185.336 C224.405997,184.711997 223.712671,184.235335 222.898,183.906 C222.083329,183.576665 221.177672,183.412 220.181,183.412 L215.748,183.412 L215.748,197.959 L220.181,197.959 C221.177672,197.959 222.083329,197.794335 222.898,197.465 C223.712671,197.135665 224.405997,196.66117 224.978,196.0415 C225.550003,195.42183 225.991998,194.661338 226.304,193.76 C226.616002,192.858662 226.772,191.836006 226.772,190.692 L226.772,190.692 Z M252.974,193.266 C253.095334,193.474001 253.2015,193.692832 253.2925,193.9225 C253.3835,194.152168 253.472333,194.383999 253.559,194.618 C253.645667,194.375332 253.736666,194.143501 253.832,193.9225 C253.927334,193.701499 254.035666,193.478334 254.157,193.253 L260.462,181.8 C260.574667,181.600666 260.691666,181.479334 260.813,181.436 C260.934334,181.392666 261.107666,181.371 261.333,181.371 L263.192,181.371 L263.192,200 L260.982,200 L260.982,186.311 C260.982,186.128999 260.986333,185.934001 260.995,185.726 C261.003667,185.517999 261.016667,185.305668 261.034,185.089 L254.651,196.737 C254.434332,197.127002 254.131002,197.322 253.741,197.322 L253.377,197.322 C252.986998,197.322 252.683668,197.127002 252.467,196.737 L245.941,185.05 C245.967,185.275334 245.9865,185.496332 245.9995,185.713 C246.0125,185.929668 246.019,186.128999 246.019,186.311 L246.019,200 L243.809,200 L243.809,181.371 L245.668,181.371 C245.893334,181.371 246.066666,181.392666 246.188,181.436 C246.309334,181.479334 246.426333,181.600666 246.539,181.8 L252.974,193.266 Z M273.719,200 L271.197,200 L271.197,181.371 L273.719,181.371 L273.719,200 Z M283.011,181.371 C283.236334,181.371 283.403166,181.399166 283.5115,181.4555 C283.619834,181.511834 283.743333,181.626666 283.882,181.8 L294.672,195.84 C294.646,195.614666 294.628667,195.395834 294.62,195.1835 C294.611333,194.971166 294.607,194.765334 294.607,194.566 L294.607,181.371 L296.817,181.371 L296.817,200 L295.543,200 C295.343666,200 295.176834,199.965334 295.0425,199.896 C294.908166,199.826666 294.776001,199.709667 294.646,199.545 L283.869,185.518 C283.886333,185.734668 283.899333,185.946999 283.908,186.155 C283.916667,186.363001 283.921,186.553666 283.921,186.727 L283.921,200 L281.711,200 L281.711,181.371 L283.011,181.371 Z M307.357,200 L304.835,200 L304.835,181.371 L307.357,181.371 L307.357,200 Z M324.514,193.266 C324.635334,193.474001 324.7415,193.692832 324.8325,193.9225 C324.9235,194.152168 325.012333,194.383999 325.099,194.618 C325.185667,194.375332 325.276666,194.143501 325.372,193.9225 C325.467334,193.701499 325.575666,193.478334 325.697,193.253 L332.002,181.8 C332.114667,181.600666 332.231666,181.479334 332.353,181.436 C332.474334,181.392666 332.647666,181.371 332.873,181.371 L334.732,181.371 L334.732,200 L332.522,200 L332.522,186.311 C332.522,186.128999 332.526333,185.934001 332.535,185.726 C332.543667,185.517999 332.556667,185.305668 332.574,185.089 L326.191,196.737 C325.974332,197.127002 325.671002,197.322 325.281,197.322 L324.917,197.322 C324.526998,197.322 324.223668,197.127002 324.007,196.737 L317.481,185.05 C317.507,185.275334 317.5265,185.496332 317.5395,185.713 C317.5525,185.929668 317.559,186.128999 317.559,186.311 L317.559,200 L315.349,200 L315.349,181.371 L317.208,181.371 C317.433334,181.371 317.606666,181.392666 317.728,181.436 C317.849334,181.479334 317.966333,181.600666 318.079,181.8 L324.514,193.266 Z M357.596,200 L355.646,200 C355.420666,200 355.238667,199.943667 355.1,199.831 C354.961333,199.718333 354.857334,199.575334 354.788,199.402 L353.046,194.904 L344.687,194.904 L342.945,199.402 C342.884333,199.558001 342.780334,199.696666 342.633,199.818 C342.485666,199.939334 342.303668,200 342.087,200 L340.137,200 L347.586,181.371 L350.147,181.371 L357.596,200 Z M345.389,193.084 L352.344,193.084 L349.419,185.505 C349.228332,185.036998 349.042001,184.452004 348.86,183.75 C348.764666,184.105335 348.6715,184.432499 348.5805,184.7315 C348.4895,185.030501 348.400667,185.292666 348.314,185.518 L345.389,193.084 Z M365.471,197.881 L373.531,197.881 L373.531,200 L362.949,200 L362.949,181.371 L365.471,181.371 L365.471,197.881 Z M382.303,200 L379.781,200 L379.781,181.371 L382.303,181.371 L382.303,200 Z M399.837,184.283 C399.759,184.413001 399.676667,184.5105 399.59,184.5755 C399.503333,184.6405 399.390667,184.673 399.252,184.673 C399.104666,184.673 398.933501,184.599334 398.7385,184.452 C398.543499,184.304666 398.296501,184.142168 397.9975,183.9645 C397.698499,183.786832 397.338835,183.624334 396.9185,183.477 C396.498165,183.329666 395.989003,183.256 395.391,183.256 C394.827664,183.256 394.329336,183.331833 393.896,183.4835 C393.462665,183.635167 393.100835,183.840999 392.8105,184.101 C392.520165,184.361001 392.301334,184.666498 392.154,185.0175 C392.006666,185.368502 391.933,185.747665 391.933,186.155 C391.933,186.675003 392.060832,187.106165 392.3165,187.4485 C392.572168,187.790835 392.910165,188.083332 393.3305,188.326 C393.750835,188.568668 394.227497,188.778832 394.7605,188.9565 C395.293503,189.134168 395.839497,189.318332 396.3985,189.509 C396.957503,189.699668 397.503497,189.914165 398.0365,190.1525 C398.569503,190.390835 399.046165,190.691998 399.4665,191.056 C399.886835,191.420002 400.224832,191.866331 400.4805,192.395 C400.736168,192.923669 400.864,193.573663 400.864,194.345 C400.864,195.159671 400.725335,195.924496 400.448,196.6395 C400.170665,197.354504 399.765503,197.976331 399.2325,198.505 C398.699497,199.033669 398.045171,199.449665 397.2695,199.753 C396.493829,200.056335 395.612005,200.208 394.624,200.208 C393.419327,200.208 392.320838,199.989169 391.3285,199.5515 C390.336162,199.113831 389.489004,198.522337 388.787,197.777 L389.515,196.581 C389.584334,196.485666 389.668833,196.4055 389.7685,196.3405 C389.868167,196.2755 389.978666,196.243 390.1,196.243 C390.282001,196.243 390.489999,196.340499 390.724,196.5355 C390.958001,196.730501 391.250498,196.944999 391.6015,197.179 C391.952502,197.413001 392.377164,197.627499 392.8755,197.8225 C393.373836,198.017501 393.982663,198.115 394.702,198.115 C395.300003,198.115 395.832998,198.032667 396.301,197.868 C396.769002,197.703333 397.165498,197.471501 397.4905,197.1725 C397.815502,196.873499 398.064666,196.516002 398.238,196.1 C398.411334,195.683998 398.498,195.220336 398.498,194.709 C398.498,194.145664 398.370168,193.684168 398.1145,193.3245 C397.858832,192.964832 397.523002,192.663668 397.107,192.421 C396.690998,192.178332 396.216503,191.972501 395.6835,191.8035 C395.150497,191.634499 394.604503,191.461168 394.0455,191.2835 C393.486497,191.105832 392.940503,190.900001 392.4075,190.666 C391.874497,190.431999 391.400002,190.128669 390.984,189.756 C390.567998,189.383331 390.232168,188.917503 389.9765,188.3585 C389.720832,187.799497 389.593,187.108337 389.593,186.285 C389.593,185.62633 389.720832,184.989336 389.9765,184.374 C390.232168,183.758664 390.602664,183.212669 391.088,182.736 C391.573336,182.259331 392.173496,181.878001 392.8885,181.592 C393.603504,181.305999 394.424662,181.163 395.352,181.163 C396.392005,181.163 397.340996,181.327665 398.199,181.657 C399.057004,181.986335 399.806663,182.462997 400.448,183.087 L399.837,184.283 Z M419.763,181.371 L419.763,183.49 L413.744,183.49 L413.744,200 L411.222,200 L411.222,183.49 L405.177,183.49 L405.177,181.371 L419.763,181.371 Z M431.353,181.371 L433.446,181.371 C433.671334,181.371 433.857666,181.427333 434.005,181.54 C434.152334,181.652667 434.252,181.795666 434.304,181.969 L438.152,194.917 C438.221334,195.151001 438.284166,195.402332 438.3405,195.671 C438.396834,195.939668 438.451,196.221332 438.503,196.516 C438.563667,196.221332 438.624333,195.937501 438.685,195.6645 C438.745667,195.391499 438.815,195.142334 438.893,194.917 L443.274,181.969 C443.326,181.821666 443.427833,181.685167 443.5795,181.5595 C443.731167,181.433833 443.915332,181.371 444.132,181.371 L444.86,181.371 C445.085334,181.371 445.269499,181.427333 445.4125,181.54 C445.555501,181.652667 445.657333,181.795666 445.718,181.969 L450.073,194.917 C450.229001,195.367669 450.367666,195.88333 450.489,196.464 C450.541,196.177999 450.588666,195.905001 450.632,195.645 C450.675334,195.384999 450.731666,195.142334 450.801,194.917 L454.662,181.969 C454.705334,181.812999 454.802833,181.674334 454.9545,181.553 C455.106167,181.431666 455.290332,181.371 455.507,181.371 L457.47,181.371 L451.659,200 L449.397,200 L444.678,185.791 C444.582666,185.522332 444.496,185.210335 444.418,184.855 C444.374666,185.028334 444.3335,185.195166 444.2945,185.3555 C444.2555,185.515834 444.214334,185.660999 444.171,185.791 L439.426,200 L437.164,200 L431.353,181.371 Z M474.406,181.371 L474.406,183.425 L465.462,183.425 L465.462,189.613 L472.703,189.613 L472.703,191.589 L465.462,191.589 L465.462,197.946 L474.406,197.946 L474.406,200 L462.927,200 L462.927,181.371 L474.406,181.371 Z M481.033,200 L481.033,181.371 L486.974,181.371 C488.118006,181.371 489.103829,181.483666 489.9315,181.709 C490.759171,181.934334 491.439497,182.254998 491.9725,182.671 C492.505503,183.087002 492.899832,183.596164 493.1555,184.1985 C493.411168,184.800836 493.539,185.478996 493.539,186.233 C493.539,186.692336 493.467501,187.134331 493.3245,187.559 C493.181499,187.983669 492.964835,188.377998 492.6745,188.742 C492.384165,189.106002 492.020169,189.430999 491.5825,189.717 C491.144831,190.003001 490.631336,190.236999 490.042,190.419 C491.402673,190.687668 492.429663,191.17733 493.123,191.888 C493.816337,192.59867 494.163,193.534661 494.163,194.696 C494.163,195.484671 494.017835,196.203997 493.7275,196.854 C493.437165,197.504003 493.012503,198.062998 492.4535,198.531 C491.894497,198.999002 491.209837,199.360832 490.3995,199.6165 C489.589163,199.872168 488.664005,200 487.624,200 L481.033,200 Z M483.555,191.511 L483.555,197.998 L487.585,197.998 C488.304337,197.998 488.921831,197.915667 489.4375,197.751 C489.953169,197.586333 490.377832,197.354501 490.7115,197.0555 C491.045168,196.756499 491.289999,196.401169 491.446,195.9895 C491.602001,195.577831 491.68,195.125002 491.68,194.631 C491.68,193.668995 491.339837,192.908503 490.6595,192.3495 C489.979163,191.790497 488.950007,191.511 487.572,191.511 L483.555,191.511 Z M483.555,189.717 L486.883,189.717 C487.59367,189.717 488.208997,189.639001 488.729,189.483 C489.249003,189.326999 489.680165,189.110335 490.0225,188.833 C490.364835,188.555665 490.618333,188.219835 490.783,187.8255 C490.947667,187.431165 491.03,187.000002 491.03,186.532 C491.03,185.439995 490.70067,184.638336 490.042,184.127 C489.38333,183.615664 488.360674,183.36 486.974,183.36 L483.555,183.36 L483.555,189.717 Z M520.352,181.371 L520.352,183.425 L511.408,183.425 L511.408,189.938 L519.052,189.938 L519.052,191.992 L511.408,191.992 L511.408,200 L508.873,200 L508.873,181.371 L520.352,181.371 Z M529.358,192.226 L529.358,200 L526.849,200 L526.849,181.371 L532.114,181.371 C533.292673,181.371 534.310996,181.490165 535.169,181.7285 C536.027004,181.966835 536.735497,182.311331 537.2945,182.762 C537.853503,183.212669 538.267332,183.756497 538.536,184.3935 C538.804668,185.030503 538.939,185.743329 538.939,186.532 C538.939,187.19067 538.835001,187.805997 538.627,188.378 C538.418999,188.950003 538.117835,189.463498 537.7235,189.9185 C537.329165,190.373502 536.84817,190.761332 536.2805,191.082 C535.71283,191.402668 535.069337,191.645333 534.35,191.81 C534.662002,191.992001 534.939332,192.256332 535.182,192.603 L540.616,200 L538.38,200 C537.920664,200 537.582668,199.822335 537.366,199.467 L532.53,192.811 C532.382666,192.602999 532.222334,192.4535 532.049,192.3625 C531.875666,192.2715 531.615668,192.226 531.269,192.226 L529.358,192.226 Z M529.358,190.393 L531.997,190.393 C532.73367,190.393 533.381497,190.304168 533.9405,190.1265 C534.499503,189.948832 534.967498,189.697502 535.3445,189.3725 C535.721502,189.047498 536.005332,188.659669 536.196,188.209 C536.386668,187.758331 536.482,187.260003 536.482,186.714 C536.482,185.604661 536.115837,184.768336 535.3835,184.205 C534.651163,183.641664 533.561341,183.36 532.114,183.36 L529.358,183.36 L529.358,190.393 Z M561.66,200 L559.71,200 C559.484666,200 559.302667,199.943667 559.164,199.831 C559.025333,199.718333 558.921334,199.575334 558.852,199.402 L557.11,194.904 L548.751,194.904 L547.009,199.402 C546.948333,199.558001 546.844334,199.696666 546.697,199.818 C546.549666,199.939334 546.367668,200 546.151,200 L544.201,200 L551.65,181.371 L554.211,181.371 L561.66,200 Z M549.453,193.084 L556.408,193.084 L553.483,185.505 C553.292332,185.036998 553.106001,184.452004 552.924,183.75 C552.828666,184.105335 552.7355,184.432499 552.6445,184.7315 C552.5535,185.030501 552.464667,185.292666 552.378,185.518 L549.453,193.084 Z M576.178,193.266 C576.299334,193.474001 576.4055,193.692832 576.4965,193.9225 C576.5875,194.152168 576.676333,194.383999 576.763,194.618 C576.849667,194.375332 576.940666,194.143501 577.036,193.9225 C577.131334,193.701499 577.239666,193.478334 577.361,193.253 L583.666,181.8 C583.778667,181.600666 583.895666,181.479334 584.017,181.436 C584.138334,181.392666 584.311666,181.371 584.537,181.371 L586.396,181.371 L586.396,200 L584.186,200 L584.186,186.311 C584.186,186.128999 584.190333,185.934001 584.199,185.726 C584.207667,185.517999 584.220667,185.305668 584.238,185.089 L577.855,196.737 C577.638332,197.127002 577.335002,197.322 576.945,197.322 L576.581,197.322 C576.190998,197.322 575.887668,197.127002 575.671,196.737 L569.145,185.05 C569.171,185.275334 569.1905,185.496332 569.2035,185.713 C569.2165,185.929668 569.223,186.128999 569.223,186.311 L569.223,200 L567.013,200 L567.013,181.371 L568.872,181.371 C569.097334,181.371 569.270666,181.392666 569.392,181.436 C569.513334,181.479334 569.630333,181.600666 569.743,181.8 L576.178,193.266 Z M605.412,181.371 L605.412,183.425 L596.468,183.425 L596.468,189.613 L603.709,189.613 L603.709,191.589 L596.468,191.589 L596.468,197.946 L605.412,197.946 L605.412,200 L593.933,200 L593.933,181.371 L605.412,181.371 Z M609.959,181.371 L612.052,181.371 C612.277334,181.371 612.463666,181.427333 612.611,181.54 C612.758334,181.652667 612.858,181.795666 612.91,181.969 L616.758,194.917 C616.827334,195.151001 616.890166,195.402332 616.9465,195.671 C617.002834,195.939668 617.057,196.221332 617.109,196.516 C617.169667,196.221332 617.230333,195.937501 617.291,195.6645 C617.351667,195.391499 617.421,195.142334 617.499,194.917 L621.88,181.969 C621.932,181.821666 622.033833,181.685167 622.1855,181.5595 C622.337167,181.433833 622.521332,181.371 622.738,181.371 L623.466,181.371 C623.691334,181.371 623.875499,181.427333 624.0185,181.54 C624.161501,181.652667 624.263333,181.795666 624.324,181.969 L628.679,194.917 C628.835001,195.367669 628.973666,195.88333 629.095,196.464 C629.147,196.177999 629.194666,195.905001 629.238,195.645 C629.281334,195.384999 629.337666,195.142334 629.407,194.917 L633.268,181.969 C633.311334,181.812999 633.408833,181.674334 633.5605,181.553 C633.712167,181.431666 633.896332,181.371 634.113,181.371 L636.076,181.371 L630.265,200 L628.003,200 L623.284,185.791 C623.188666,185.522332 623.102,185.210335 623.024,184.855 C622.980666,185.028334 622.9395,185.195166 622.9005,185.3555 C622.8615,185.515834 622.820334,185.660999 622.777,185.791 L618.032,200 L615.77,200 L609.959,181.371 Z M658.836,190.692 C658.836,192.08734 658.615002,193.367828 658.173,194.5335 C657.730998,195.699172 657.107004,196.702329 656.301,197.543 C655.494996,198.383671 654.526506,199.035831 653.3955,199.4995 C652.264494,199.963169 651.01434,200.195 649.645,200.195 C648.27566,200.195 647.027672,199.963169 645.901,199.4995 C644.774328,199.035831 643.808004,198.383671 643.002,197.543 C642.195996,196.702329 641.572002,195.699172 641.13,194.5335 C640.687998,193.367828 640.467,192.08734 640.467,190.692 C640.467,189.29666 640.687998,188.016172 641.13,186.8505 C641.572002,185.684828 642.195996,184.679504 643.002,183.8345 C643.808004,182.989496 644.774328,182.333002 645.901,181.865 C647.027672,181.396998 648.27566,181.163 649.645,181.163 C651.01434,181.163 652.264494,181.396998 653.3955,181.865 C654.526506,182.333002 655.494996,182.989496 656.301,183.8345 C657.107004,184.679504 657.730998,185.684828 658.173,186.8505 C658.615002,188.016172 658.836,189.29666 658.836,190.692 L658.836,190.692 Z M656.249,190.692 C656.249,189.547994 656.093002,188.521005 655.781,187.611 C655.468998,186.700995 655.027003,185.931836 654.455,185.3035 C653.882997,184.675164 653.189671,184.192002 652.375,183.854 C651.560329,183.515998 650.650338,183.347 649.645,183.347 C648.648328,183.347 647.742671,183.515998 646.928,183.854 C646.113329,184.192002 645.417836,184.675164 644.8415,185.3035 C644.265164,185.931836 643.821002,186.700995 643.509,187.611 C643.196998,188.521005 643.041,189.547994 643.041,190.692 C643.041,191.836006 643.196998,192.860829 643.509,193.7665 C643.821002,194.672171 644.265164,195.439164 644.8415,196.0675 C645.417836,196.695836 646.113329,197.176832 646.928,197.5105 C647.742671,197.844168 648.648328,198.011 649.645,198.011 C650.650338,198.011 651.560329,197.844168 652.375,197.5105 C653.189671,197.176832 653.882997,196.695836 654.455,196.0675 C655.027003,195.439164 655.468998,194.672171 655.781,193.7665 C656.093002,192.860829 656.249,191.836006 656.249,190.692 L656.249,190.692 Z M668.05,192.226 L668.05,200 L665.541,200 L665.541,181.371 L670.806,181.371 C671.984673,181.371 673.002996,181.490165 673.861,181.7285 C674.719004,181.966835 675.427497,182.311331 675.9865,182.762 C676.545503,183.212669 676.959332,183.756497 677.228,184.3935 C677.496668,185.030503 677.631,185.743329 677.631,186.532 C677.631,187.19067 677.527001,187.805997 677.319,188.378 C677.110999,188.950003 676.809835,189.463498 676.4155,189.9185 C676.021165,190.373502 675.54017,190.761332 674.9725,191.082 C674.40483,191.402668 673.761337,191.645333 673.042,191.81 C673.354002,191.992001 673.631332,192.256332 673.874,192.603 L679.308,200 L677.072,200 C676.612664,200 676.274668,199.822335 676.058,199.467 L671.222,192.811 C671.074666,192.602999 670.914334,192.4535 670.741,192.3625 C670.567666,192.2715 670.307668,192.226 669.961,192.226 L668.05,192.226 Z M668.05,190.393 L670.689,190.393 C671.42567,190.393 672.073497,190.304168 672.6325,190.1265 C673.191503,189.948832 673.659498,189.697502 674.0365,189.3725 C674.413502,189.047498 674.697332,188.659669 674.888,188.209 C675.078668,187.758331 675.174,187.260003 675.174,186.714 C675.174,185.604661 674.807837,184.768336 674.0755,184.205 C673.343163,183.641664 672.253341,183.36 670.806,183.36 L668.05,183.36 L668.05,190.393 Z M687.794,189.535 L688.743,189.535 C689.072335,189.535 689.334499,189.493834 689.5295,189.4115 C689.724501,189.329166 689.908666,189.188334 690.082,188.989 L696.283,181.969 C696.473668,181.752332 696.657832,181.5985 696.8355,181.5075 C697.013168,181.4165 697.240665,181.371 697.518,181.371 L699.663,181.371 L692.565,189.392 C692.382999,189.591334 692.211834,189.760333 692.0515,189.899 C691.891166,190.037667 691.720001,190.150333 691.538,190.237 C691.780668,190.315 691.992999,190.431999 692.175,190.588 C692.357001,190.744001 692.547666,190.938999 692.747,191.173 L700.157,200 L697.973,200 C697.808333,200 697.669667,199.987 697.557,199.961 C697.444333,199.935 697.346834,199.900334 697.2645,199.857 C697.182166,199.813666 697.106334,199.757334 697.037,199.688 C696.967666,199.618666 696.898334,199.545 696.829,199.467 L690.394,192.07 C690.298666,191.965999 690.209834,191.877167 690.1275,191.8035 C690.045166,191.729833 689.949834,191.667 689.8415,191.615 C689.733166,191.563 689.607501,191.526167 689.4645,191.5045 C689.321499,191.482833 689.146001,191.472 688.938,191.472 L687.794,191.472 L687.794,200 L685.285,200 L685.285,181.371 L687.794,181.371 L687.794,189.535 Z" fill="#2D3236"></path>
        </g>
    </g>
</svg>