<?xml version="1.0" encoding="UTF-8" standalone="no"?>
<svg width="75px" height="15px" viewBox="0 0 75 15" version="1.1" xmlns="http://www.w3.org/2000/svg" xmlns:xlink="http://www.w3.org/1999/xlink">
    <defs></defs>
    <g stroke="none" stroke-width="1" fill="none" fill-rule="evenodd" opacity="0.55">
        <g fill="#BECAD3">
            <path d="M75,12 L60,12 L60,15 L75,15 L75,12 Z M75,6 L60,6 L60,9 L75,9 L75,6 Z M75,-1.5286178e-15 L60,-4.2840731e-15 L60,3 L75,3 L75,-1.5286178e-15 Z M42,-1.91513472e-16 L42,3 L48,3 L48,15 L51,15 L51,3 L57,3 L57,-1.91513472e-16 L42,-1.91513472e-16 Z M36,-1.91513472e-16 L36,15 L39,15 L39,-1.91513472e-16 L36,-1.91513472e-16 Z M18,-1.91513472e-16 L21,-1.91513472e-16 L21,6 L30,6 L30,-1.91513472e-16 L33,-1.91513472e-16 L33,15 L30,15 L30,9 L21,9 L21,15 L18,15 L18,-1.91513472e-16 Z M12,-1.91513472e-16 L12,15 L15,15 L15,-1.91513472e-16 L12,-1.91513472e-16 Z M6,-1.91513472e-16 L6,15 L9,15 L9,-1.91513472e-16 L6,-1.91513472e-16 Z M0,-1.91513472e-16 L0,15 L3,15 L3,-1.91513472e-16 L0,-1.91513472e-16 Z"></path>
        </g>
    </g>
</svg>